<svg width="1370" height="900" xmlns="http://www.w3.org/2000/svg">
 <title>毕业设计-车站线路</title>

 <g id="Layer_1">
  <title>line_5</title>
  <line id="svg_1" y2="721.45068" x2="149.37503" y1="87.49999" x1="149.37503" stroke-width="5" stroke="#000" fill="none"/>
  <line id="svg_2" y2="718.75001" x2="467.1262" y1="718.75001" x1="150.4167" stroke-width="5" stroke="#000" fill="none"/>
  <line id="svg_3" y2="205.92338" x2="463.95838" y1="717.70834" x1="463.95838" stroke-width="5" stroke="#000" fill="none"/>
  <line id="svg_4" y2="205.20833" x2="776.33826" y1="205.20833" x1="463.95837" stroke-width="5" stroke="#000"  fill="none"/>
  <path name="站点1" stroke="#000" id="svg_5" d="m139.59991,90.89583l10.19432,-10.19423l10.19403,10.19423l-10.19403,10.1943l-10.19432,-10.1943z" stroke-width="18" fill="none"/>
  <path name="站点2" stroke="#000" id="svg_6" d="m138.62904,271.47836l10.19432,-10.19424l10.19403,10.19424l-10.19403,10.19431l-10.19432,-10.19431z" stroke-width="18" fill="none"/>
  <path name="站点3" stroke="#000" id="svg_7" d="m138.62904,491.8667l10.19432,-10.19421l10.19403,10.19421l-10.19403,10.19434l-10.19432,-10.19434z" stroke-width="18" fill="none"/>
  <path name="站点4" stroke="#000" id="svg_8" d="m139.5999,718.08032l10.19432,-10.19421l10.19403,10.19421l-10.19403,10.19434l-10.19432,-10.19434z" stroke-width="18" fill="none"/>
  <path name="站点5" stroke="#000" id="svg_9" d="m453.19214,718.08026l10.19434,-10.19421l10.19403,10.19421l-10.19403,10.19434l-10.19434,-10.19434z" stroke-width="18" fill="none"/>
  <path name="站点6" stroke="#000" id="svg_10" d="m453.19217,452.06122l10.19434,-10.19421l10.194,10.19421l-10.194,10.19434l-10.19434,-10.19434z" stroke-width="18" fill="none"/>
  <path name="站点7" stroke="#000" id="svg_11" d="m454.16302,205.45894l10.19434,-10.19423l10.19403,10.19423l-10.19403,10.19431l-10.19434,-10.19431z" stroke-width="18" fill="none"/>
  <path name="站点8" stroke="#000" id="svg_12" d="m765.81354,203.51718l10.19434,-10.19421l10.19403,10.19421l-10.19403,10.19431l-10.19434,-10.19431z" stroke-width="18" fill="none"/>
 </g>
</svg>